<?xml version="1.0" encoding="UTF-8"?>
<svg id="Calque_1" data-name="Calque 1" xmlns="http://www.w3.org/2000/svg" viewBox="0 0 110.18 105.47">
  <defs>
    <style>
      .cls-1 {
        fill: #fceef5;
      }
    </style>
  </defs>
  <path class="cls-1" d="M12.62,5.66C16.84-4.26,25.82.08,24.48,9.28c-1.03,7.09-3.75,13.12-5.96,18.55C28.02,18.5,38.5.33,50.08,1.47c17.82,1.74,2.16,34.24,2.16,34.24,0,0,19.5-28.16,30.16-29.24,16.19-1.64,6.01,19.77,1.41,30.77,4.8-.46,10.29-3.39,16.82-8.89,7.42-5.69,13.09,7.99,6.92,12.39-8.15,8.75-27.76,18.2-33.62,10.62-5.5-7.12,2.59-25.7,2.59-25.7,0,0-30.7,39.84-39.05,22.09-2.92-8.69,7.36-30.13,7.36-30.13,0,0-6.65,9.25-11.53,14.48C17.39,50.72-1.88,61.52.15,47.36,1.69,36.59,8.35,15.67,12.62,5.66Z"/>
  <path class="cls-1" d="M52.97,105.47c12.76,0,24.84-5.47,33.3-14.7,3.43-3.75,2.4-9.76-2-12.3h0c-3.21-1.86-7.34-1.34-9.84,1.41-5.44,5.97-13.22,9.5-21.45,9.5-11.93,0-22.37-7.22-26.77-17.84-1.43-3.46-5.12-5.42-8.81-4.76h0c-5.01.89-8.03,6.19-6.09,10.89,6.83,16.56,23.09,27.81,41.66,27.81Z"/>
</svg>