<?xml version="1.0" encoding="UTF-8"?>
<svg id="Calque_1" data-name="Calque 1" xmlns="http://www.w3.org/2000/svg" viewBox="0 0 419.27 179.91">
  <defs>
    <style>
      .cls-1 {
        fill: #11030a;
      }

      .cls-2 {
        fill: #fceef5;
      }
    </style>
  </defs>
  <path class="cls-1" d="M111.29,114.76c1.39-9.71,6.25-25.75,10.36-37.08-4.76-11.74-16.3-20.16-30.88-20.16-19.27,0-33.25,14.7-33.25,32.35s13.98,32.35,33.25,32.35c7.9,0,14.91-2.47,20.43-6.6.03-.28.05-.56.09-.85ZM90.77,108.15c-10.04,0-17.29-7.89-17.29-18.28s7.26-18.28,17.29-18.28,17.39,7.89,17.39,18.28-7.35,18.28-17.39,18.28Z"/>
  <path class="cls-2" d="M213.61,100.45c-3.83,2.36-7.28,3.68-10.46,3.98,4.88-11.68,15.7-34.43-1.5-32.69-11.33,1.15-32.05,31.06-32.05,31.06,0,0,16.65-34.53-2.29-36.39-12.3-1.2-23.45,18.1-33.53,28.01,2.35-5.77,5.23-12.17,6.33-19.71,1.42-9.77-8.12-14.39-12.61-3.84-4.53,10.64-11.61,32.86-13.25,44.3-2.15,15.05,18.32,3.57,35.23-16.21,5.18-5.56,12.25-15.39,12.25-15.39,0,0-10.92,22.78-7.82,32.02,8.88,18.86,41.5-23.47,41.5-23.47,0,0-8.6,19.75-2.75,27.31,4.6,5.95,17.19,2.01,26.93-4.2-3.43-4.01-5.54-9.04-5.98-14.79Z"/>
  <path class="cls-1" d="M270.23,98.2c0-13.26,9.95-24.38,25.9-24.38,14.07,0,24.73,8.69,24.73,25.09,0,.63,0,1.34-.09,1.97h-35.76c.18,4.21,5.02,8.96,13.8,8.96,4.48,0,8.69-1.61,12.72-5.02,1.25,1.25,6.36,7.62,7.62,8.78-6.18,6.54-14.16,8.6-21.69,8.6-17.21,0-27.24-10.75-27.24-24.02ZM285.2,92.65h21.15c-.54-5.29-5.74-7.35-10.31-7.35s-9.95,1.97-10.84,7.35Z"/>
  <path class="cls-1" d="M333.07,104.66c1.17,4.93,5.2,6.36,8.87,6.36,2.78,0,5.38-.9,5.38-3.05,0-1.25-.81-1.97-3.32-3.05l-7.71-3.23c-7.35-2.69-12.37-7.26-12.37-13.8,0-8.51,8.51-14.07,18.91-14.07,6.45,0,13.62,2.15,17.65,10.57l-11.56,4.39c-1.17-3.41-4.39-4.12-6.27-4.12-2.51,0-4.39,1.25-4.39,3.14,0,1.61,1.52,2.51,3.85,3.32l6.18,2.51c10.75,3.94,13.44,9.41,13.44,14.34,0,9.32-9.41,14.25-19.98,14.25-8.6,0-17.38-3.23-19.89-13.08l11.2-4.48Z"/>
  <path class="cls-2" d="M256.53,73.64c-6.89,4.91-.56,20.16,7.72,13.82,6.85-4.87.5-20.16-7.72-13.82Z"/>
  <path class="cls-1" d="M260.3,91.97c-3.98,0-7.53-3.03-9.03-7.73-1.02-3.18-.86-6.4.29-9.02-2.8-.92-5.88-1.4-9.14-1.4-15.95,0-25.9,11.11-25.9,24.38s10.04,24.02,27.24,24.02c7.53,0,15.5-2.06,21.69-8.6-1.25-1.17-6.36-7.53-7.62-8.78-4.03,3.41-8.24,5.02-12.72,5.02-8.78,0-13.62-4.75-13.8-8.96h35.76c.09-.63.09-1.34.09-1.97,0-3.31-.44-6.29-1.25-8.97-1.8,1.34-3.69,2.02-5.61,2.02ZM231.48,92.65c.9-5.38,6.45-7.35,10.84-7.35s9.77,2.06,10.31,7.35h-21.15Z"/>
</svg>