<svg width="138" height="138" viewBox="0 0 138 138" fill="none" xmlns="http://www.w3.org/2000/svg">
<g id="Group">
<path id="Vector" d="M41.2365 76.6336C37.3761 76.5864 34.2638 79.626 34.2094 83.49C34.1585 87.3758 37.1691 90.4917 41.0186 90.5353C44.908 90.5789 47.9658 87.5901 48.0094 83.7079C48.053 79.7785 45.0896 76.6844 41.2365 76.6372V76.6336Z" fill="white"/>
<path id="Vector_2" d="M97.5877 55.7955C97.0176 54.5354 96.0661 53.4568 95.4197 52.2257C93.5567 48.6885 90.6805 47.334 86.7366 47.4102C78.6745 47.5664 70.6015 47.6572 62.5502 47.3812C57.7856 47.2178 54.1032 48.6341 51.7463 52.8068C47.363 60.5711 40.9641 64.8273 32.1067 66.3271C24.7382 67.5728 23.7722 69.7118 24.5385 77.1783C24.8653 80.3668 26.2889 82.4223 30.0621 82.2008C30.3055 81.5761 30.4507 81.2347 30.5742 80.8861C32.4735 75.5622 36.1014 72.7332 41.113 72.6642C45.9975 72.5952 49.2804 75.141 51.7136 80.3414C52.1784 81.3328 53.8562 82.3133 54.9929 82.3315C63.9375 82.4949 72.8821 82.3751 81.8267 82.4586C83.8422 82.4767 84.9462 81.9974 85.6761 79.862C87.2522 75.2644 91.0763 72.7332 95.7465 72.6642C100.344 72.5989 104.168 75.1954 106.031 79.6514C107.284 82.6511 110.175 83.1668 112.223 80.759C115.332 77.102 113.487 67.787 108.995 66.0983C103.751 64.1264 99.9083 60.9342 97.5841 55.8028L97.5877 55.7955Z" fill="white"/>
<path id="Vector_3" d="M95.8701 76.619C92.0823 76.5791 88.8429 79.7349 88.7921 83.5154C88.7413 87.2959 91.908 90.5135 95.7103 90.5425C99.567 90.5716 102.694 87.521 102.752 83.6752C102.806 79.8911 99.6578 76.659 95.8701 76.6227V76.619Z" fill="white"/>
<path id="Vector_4" d="M69 0C30.8938 0 0 30.8938 0 69C0 107.106 30.8938 138 69 138C107.106 138 138 107.106 138 69C138 30.8938 107.106 0 69 0ZM117.438 79.7531C115.539 83.8423 112.59 86.3517 107.905 86.5732C107.168 86.6059 106.245 87.4811 105.802 88.2111C100.54 96.8651 90.9638 96.9341 85.7997 88.4072C85.2368 87.4811 83.7624 86.595 82.6983 86.5805C73.2526 86.4388 63.8032 86.4279 54.3575 86.5877C53.199 86.6059 51.5938 87.5828 50.991 88.596C46.1755 96.6908 36.1306 96.7525 31.3042 88.7231C30.5924 87.5356 29.0308 86.4824 27.6763 86.1483C23.5762 85.1387 21.1757 82.5349 20.8307 78.5402C20.0136 69.1017 20.4603 64.4097 31.0064 62.4704C38.8361 61.0287 44.6648 57.4516 48.576 50.4608C51.6992 44.8827 56.6889 43.0451 62.9135 43.2703C70.7141 43.5499 78.5329 43.4264 86.3408 43.3102C91.8753 43.2267 96.1025 45.2095 98.8189 50.2211C99.843 52.1095 101.227 53.8055 102.196 55.7193C103.649 58.5846 105.991 60.1026 108.74 61.617C111.907 63.3565 114.562 66.0403 117.438 68.3136V79.7567V79.7531Z" fill="white"/>
</g>
</svg>
