<svg width="36" height="37" viewBox="0 0 36 37" fill="none" xmlns="http://www.w3.org/2000/svg">
<g id="Social Media Icon Square/Instagram">
<rect id="Social Media Icon" y="0.0124512" width="36" height="36" rx="8" fill="white"/>
<path id="Instagram" fill-rule="evenodd" clip-rule="evenodd" d="M9 18.0125C9 14.4173 9 12.6197 9.85669 11.325C10.2392 10.7468 10.7344 10.2517 11.3126 9.86914C12.6073 9.01245 14.4049 9.01245 18 9.01245C21.5951 9.01245 23.3927 9.01245 24.6874 9.86914C25.2656 10.2517 25.7608 10.7468 26.1433 11.325C27 12.6197 27 14.4173 27 18.0125C27 21.6076 27 23.4052 26.1433 24.6999C25.7608 25.2781 25.2656 25.7732 24.6874 26.1558C23.3927 27.0125 21.5951 27.0125 18 27.0125C14.4049 27.0125 12.6073 27.0125 11.3126 26.1558C10.7344 25.7732 10.2392 25.2781 9.85669 24.6999C9 23.4052 9 21.6076 9 18.0125ZM22.6593 18.0127C22.6593 20.586 20.5732 22.6721 17.9998 22.6721C15.4265 22.6721 13.3404 20.586 13.3404 18.0127C13.3404 15.4394 15.4265 13.3533 17.9998 13.3533C20.5732 13.3533 22.6593 15.4394 22.6593 18.0127ZM17.9998 21.0957C19.7025 21.0957 21.0828 19.7154 21.0828 18.0127C21.0828 16.31 19.7025 14.9297 17.9998 14.9297C16.2971 14.9297 14.9168 16.31 14.9168 18.0127C14.9168 19.7154 16.2971 21.0957 17.9998 21.0957ZM22.8433 14.214C23.4479 14.214 23.9381 13.7238 23.9381 13.1192C23.9381 12.5145 23.4479 12.0244 22.8433 12.0244C22.2386 12.0244 21.7485 12.5145 21.7485 13.1192C21.7485 13.7238 22.2386 14.214 22.8433 14.214Z" fill="#053B38"/>
</g>
</svg>
