<svg width="36" height="37" viewBox="0 0 36 37" fill="none" xmlns="http://www.w3.org/2000/svg">
<g id="Social Media Icon Square/LinkedIn">
<g id="Group 73">
<rect id="Social Media Icon" y="0.0124512" width="36" height="36" rx="8" fill="white"/>
<path id="LinkedIn" d="M9 11.4324C9 10.8552 9.20271 10.379 9.60811 10.0038C10.0135 9.62862 10.5405 9.44104 11.1892 9.44104C11.8263 9.44104 12.3417 9.62573 12.7355 9.99515C13.1409 10.3761 13.3436 10.8725 13.3436 11.4843C13.3436 12.0384 13.1467 12.5002 12.7529 12.8696C12.3475 13.2506 11.8147 13.441 11.1544 13.441H11.1371C10.5 13.441 9.98456 13.2506 9.59073 12.8696C9.19691 12.4887 9 12.0096 9 11.4324ZM9.22587 26.5839V15.0168H13.083V26.5839H9.22587ZM15.2201 26.5839H19.0772V20.125C19.0772 19.721 19.1236 19.4093 19.2162 19.19C19.3784 18.7975 19.6245 18.4656 19.9546 18.1943C20.2847 17.923 20.6988 17.7874 21.1969 17.7874C22.4942 17.7874 23.1429 18.6589 23.1429 20.4021V26.5839H27V19.9519C27 18.2433 26.5946 16.9475 25.7838 16.0644C24.973 15.1813 23.9015 14.7397 22.5695 14.7397C21.0753 14.7397 19.9112 15.3804 19.0772 16.6618V16.6964H19.0598L19.0772 16.6618V15.0168H15.2201C15.2432 15.3862 15.2548 16.5348 15.2548 18.4627C15.2548 20.3905 15.2432 23.0976 15.2201 26.5839Z" fill="#053B38"/>
</g>
</g>
</svg>
