<svg width="20" height="32" viewBox="0 0 20 32" fill="none" xmlns="http://www.w3.org/2000/svg">
<path id="Vector" d="M0.180176 4.375C0.180176 3.34729 0.580532 2.36166 1.29317 1.63496C2.00581 0.908258 2.97235 0.5 3.98018 0.5L15.3802 0.5C16.388 0.5 17.3545 0.908258 18.0672 1.63496C18.7798 2.36166 19.1802 3.34729 19.1802 4.375V27.625C19.1802 28.6527 18.7798 29.6383 18.0672 30.365C17.3545 31.0917 16.388 31.5 15.3802 31.5H3.98018C2.97235 31.5 2.00581 31.0917 1.29317 30.365C0.580532 29.6383 0.180176 28.6527 0.180176 27.625V4.375ZM11.5802 25.6875C11.5802 25.1736 11.38 24.6808 11.0237 24.3175C10.6674 23.9541 10.1841 23.75 9.68018 23.75C9.17626 23.75 8.69299 23.9541 8.33667 24.3175C7.98035 24.6808 7.78018 25.1736 7.78018 25.6875C7.78018 26.2014 7.98035 26.6942 8.33667 27.0575C8.69299 27.4209 9.17626 27.625 9.68018 27.625C10.1841 27.625 10.6674 27.4209 11.0237 27.0575C11.38 26.6942 11.5802 26.2014 11.5802 25.6875Z" fill="#F8F8F8"/>
</svg>
