<svg width="36" height="37" viewBox="0 0 36 37" fill="none" xmlns="http://www.w3.org/2000/svg">
<g id="Social Media Icon Square/YouTube">
<g id="Group 73">
<rect id="Social Media Icon" y="0.0124512" width="36" height="36" rx="8" fill="white"/>
<path id="YouTube" d="M18.4386 24.9924L14.3764 24.9165C13.0612 24.89 11.7427 24.9428 10.4532 24.6687C8.49165 24.2592 8.35268 22.2513 8.20727 20.5671C8.00691 18.1992 8.08448 15.7884 8.46258 13.4403C8.67604 12.1228 9.51607 11.3366 10.8152 11.2511C15.2005 10.9406 19.615 10.9774 23.9906 11.1223C24.4528 11.1355 24.9181 11.2081 25.3737 11.2907C27.6231 11.6936 27.6779 13.969 27.8237 15.8845C27.9691 17.8197 27.9077 19.7649 27.6298 21.6869C27.4068 23.2783 26.9802 24.6129 25.1798 24.7417C22.9241 24.9102 20.7201 25.0458 18.458 25.0026C18.4581 24.9924 18.4451 24.9924 18.4386 24.9924ZM16.0505 20.9634C17.7504 19.966 19.4178 18.9852 21.108 17.9945C19.4049 16.9971 17.7406 16.0163 16.0505 15.0256V20.9634Z" fill="#053B38"/>
</g>
</g>
</svg>
