<svg width="137" height="138" viewBox="0 0 137 138" fill="none" xmlns="http://www.w3.org/2000/svg">
<g id="Group">
<path id="Vector" d="M77.0697 138H59.947C58.9696 137.659 58.0173 137.17 57.0075 136.994C29.0541 132.077 6.51248 109.997 1.26246 82.358C-4.17801 53.7014 8.23374 24.6998 33.316 10.1883C41.4479 5.48406 51.028 3.32422 59.947 0C65.6534 0 71.3633 0 77.0697 0C78.0543 0.341406 79.0138 0.797812 80.0235 1.00625C107.887 6.72031 125.879 23.4528 134.514 50.5856C135.535 53.7877 136.182 57.1083 137.001 60.375V77.625C136.66 78.6133 136.2 79.5764 135.995 80.5898C130.299 108.635 113.752 126.82 86.79 135.492C83.6098 136.516 80.3146 137.17 77.0733 138H77.0697ZM22.8734 68.9209C22.8016 94.0808 43.3884 114.896 68.4311 114.975C93.3983 115.054 114.064 94.2964 114.132 69.0683C114.201 43.8905 93.6355 23.1042 68.5748 23.0252C43.5932 22.9461 22.9453 43.682 22.8698 68.9209H22.8734Z" fill="white"/>
<path id="Vector_2" d="M81.0835 78.4695H55.8359V59.6239H81.0835V78.4695Z" fill="white"/>
<path id="Vector_3" d="M81.3064 51.7859H55.7139C58.5635 45.2021 60.5794 39.1251 63.7201 33.7093C66.5337 28.8614 70.4542 28.8434 73.2606 33.6698C76.4157 39.0928 78.4424 45.1842 81.3064 51.7859Z" fill="white"/>
<path id="Vector_4" d="M55.7785 86.1602H81.1698C78.4531 92.6289 76.5522 98.6664 73.487 104.028C70.5008 109.257 66.336 109.131 63.2888 103.741C60.3637 98.5658 58.5347 92.7619 55.7749 86.1602H55.7785Z" fill="white"/>
<path id="Vector_5" d="M48.0923 59.649V78.3258H30.8582V59.649H48.0923Z" fill="white"/>
<path id="Vector_6" d="M88.928 78.3473V59.6418H106.202V78.3473H88.928Z" fill="white"/>
<path id="Vector_7" d="M34.3652 52.095C38.4007 42.9561 45.5516 36.3687 54.5604 33.2853C52.8715 39.2437 51.355 44.9542 49.5475 50.5712C49.3068 51.3259 47.6143 51.98 46.5686 52.0267C42.6912 52.1992 38.7995 52.095 34.3652 52.095Z" fill="white"/>
<path id="Vector_8" d="M82.3342 32.8721C91.7346 36.7246 98.1597 42.7082 103.047 52.0807C98.1166 52.0807 93.9554 52.2029 89.8121 51.9872C88.885 51.9405 87.4872 50.8768 87.2069 49.9927C85.5179 44.6308 84.0949 39.1863 82.3306 32.8757L82.3342 32.8721Z" fill="white"/>
<path id="Vector_9" d="M54.7078 105.207C45.3613 101.2 38.8607 95.3457 33.9736 85.9517C38.9577 85.9517 43.2519 85.8259 47.5281 86.0595C48.3797 86.1062 49.5979 87.3856 49.8962 88.3343C51.5276 93.5596 52.9254 98.8568 54.7078 105.207Z" fill="white"/>
<path id="Vector_10" d="M103.09 85.9158C98.0878 95.3243 91.6914 101.279 82.3665 105.103C84.1165 98.8425 85.5754 93.2615 87.3146 87.7702C87.5769 86.94 89.097 86.0488 90.078 85.9985C94.1026 85.8008 98.1381 85.9158 103.093 85.9158H103.09Z" fill="white"/>
</g>
</svg>
