<?xml version="1.0" encoding="UTF-8"?>
<svg id="Calque_1" xmlns="http://www.w3.org/2000/svg" version="1.1" viewBox="0 0 157.16 140.35">
  <!-- Generator: Adobe Illustrator 29.1.0, SVG Export Plug-In . SVG Version: 2.1.0 Build 142)  -->
  <defs>
    <style>
      .st0 {
        fill: #fceef5;
      }
    </style>
  </defs>
  <path class="st0" d="M36.58,17.76l83.95-.05c1.32,0,2.63.32,3.75,1.02,1.88,1.18,3.17,3.2,3.4,5.52.02.22.02.43.02.65v83.78c0,.28,0,.55-.04.83-.25,1.85-1.21,3.54-2.6,4.71-1.27,1.06-2.9,1.57-4.56,1.57H36.38c-.71,0-1.43-.08-2.1-.3-2.11-.7-3.79-2.4-4.5-4.51-.23-.68-.31-1.41-.31-2.13V24.67c0-.85.12-1.71.44-2.51.22-.56.52-1.08.87-1.57,1.34-1.83,3.54-2.83,5.81-2.83Z"/>
  <g>
    <path d="M71.09,35.75c6.66-.19,13.87-.24,20.5.13,10.84.61,17.22,6.97,17.83,17.83.46,8.25.46,17.76,0,26-.61,10.83-6.99,17.22-17.83,17.83-8.24.46-17.77.46-26,0-10.86-.61-17.21-6.98-17.83-17.83-.47-8.26-.49-17.94.01-26.19.91-14.89,10.49-17.41,23.32-17.77ZM68.27,41.39c-10.77.48-14.24,3.28-14.87,14.14-.38,6.66-.46,14.27-.21,20.96.45,11.76,3.84,15.17,15.61,15.61,6.13.23,13.22.22,19.36,0,11.84-.43,15.37-3.66,15.81-15.61.23-6.13.22-13.22,0-19.36-.43-11.67-3.55-15.34-15.41-15.81-6.41-.26-13.88-.22-20.29.07Z"/>
    <path d="M77.34,50.86c20.98-1.75,23.29,30.5,2.15,31.76-20.46,1.22-22.94-30.03-2.15-31.76ZM77.13,56.5c-12.86,1.56-11.12,21.93,2.74,20.47,13.07-1.38,11.36-22.17-2.74-20.47Z"/>
    <path d="M97.86,52.75c-.42.45-1.41,1.01-2.04,1.08-5.66.68-5.9-7.77-.2-7.26,2.95.26,4.2,4.08,2.24,6.18Z"/>
  </g>
</svg>