<?xml version="1.0" encoding="UTF-8"?>
<svg id="Calque_1" xmlns="http://www.w3.org/2000/svg" version="1.1" viewBox="0 0 157.16 140.35">
  <!-- Generator: Adobe Illustrator 29.1.0, SVG Export Plug-In . SVG Version: 2.1.0 Build 142)  -->
  <defs>
    <style>
      .st0 {
        fill: #fceef5;
      }
    </style>
  </defs>
  <path class="st0" d="M36.58,17.76l83.95-.05c1.32,0,2.63.32,3.75,1.02,1.88,1.18,3.17,3.2,3.4,5.52.02.22.02.43.02.65v83.78c0,.28,0,.55-.04.83-.25,1.85-1.21,3.54-2.6,4.71-1.27,1.06-2.9,1.57-4.56,1.57H36.38c-.71,0-1.43-.08-2.1-.3-2.11-.7-3.79-2.4-4.5-4.51-.23-.68-.31-1.41-.31-2.13V24.67c0-.85.12-1.71.44-2.51.22-.56.52-1.08.87-1.57,1.34-1.83,3.54-2.83,5.81-2.83Z"/>
  <path d="M49.92,34.38l57.02-.03c2.27.33,3.97,2.24,4.1,4.54v55.85c-.17,2.21-1.87,4.14-4.1,4.43h-56.73c-2.12-.24-3.84-1.98-4.1-4.1v-56.62c.22-2.02,1.82-3.68,3.8-4.07ZM59.98,43.23c-7.04.66-6.39,11.29.6,11.18,7.68-.11,7.01-11.9-.6-11.18ZM101.42,89.65c-.06-6.9.13-13.82-.11-20.71-.38-3.67-1.43-7.64-4.82-9.61-2.5-1.46-6.7-1.88-9.48-1.19s-4.85,2.43-6.36,4.73v-4.26h-9.29v31.04h9.62v-16.34c.17-3.4,1.14-6.68,5.08-6.94,4.73-.31,5.51,2.67,5.75,6.72v16.56s9.61,0,9.61,0ZM65.36,58.61h-9.62v31.04h9.62v-31.04Z"/>
</svg>