<svg width="36" height="37" viewBox="0 0 36 37" fill="none" xmlns="http://www.w3.org/2000/svg">
<g id="Social Media Icon Square/Twitter">
<rect id="Social Media Icon" y="0.0124512" width="36" height="36" rx="8" fill="white"/>
<path id="Twitter" d="M21.027 10.7138V10.7106H21.871L22.1794 10.7722C22.385 10.8121 22.5717 10.8646 22.7394 10.9294C22.9071 10.9942 23.0694 11.0699 23.2263 11.1563C23.3832 11.2427 23.5255 11.3308 23.6532 11.4205C23.7798 11.5091 23.8934 11.6031 23.994 11.7025C24.0936 11.803 24.2488 11.829 24.4598 11.7803C24.6708 11.7317 24.8981 11.6642 25.1415 11.5777C25.385 11.4913 25.6258 11.394 25.8638 11.286C26.1019 11.1779 26.2469 11.1093 26.2988 11.0801C26.3497 11.0499 26.3767 11.0337 26.38 11.0315L26.3832 11.0266L26.3994 11.0185L26.4157 11.0104L26.4319 11.0023L26.4481 10.9942L26.4514 10.9894L26.4562 10.9861L26.4611 10.9829L26.4644 10.978L26.4806 10.9731L26.4968 10.9699L26.4936 10.9942L26.4887 11.0185L26.4806 11.0428L26.4725 11.0672L26.4644 11.0834L26.4562 11.0996L26.4481 11.1239C26.4427 11.1401 26.4373 11.1617 26.4319 11.1887C26.4265 11.2157 26.3751 11.3238 26.2777 11.5129C26.1803 11.702 26.0586 11.8938 25.9125 12.0883C25.7664 12.2828 25.6355 12.4297 25.5197 12.5292C25.4029 12.6296 25.3255 12.6999 25.2876 12.7399C25.2498 12.7809 25.2038 12.8187 25.1497 12.8533L25.0685 12.9068L25.0523 12.9149L25.036 12.923L25.0328 12.9279L25.0279 12.9311L25.0231 12.9344L25.0198 12.9392L25.0036 12.9473L24.9873 12.9554L24.9841 12.9603L24.9792 12.9635L24.9744 12.9668L24.9711 12.9716L24.9679 12.9765L24.963 12.9797L24.9581 12.983L24.9549 12.9879H25.036L25.4905 12.8906C25.7935 12.8258 26.0829 12.7474 26.3589 12.6556L26.7971 12.5097L26.8458 12.4935L26.8701 12.4854L26.8864 12.4773L26.9026 12.4692L26.9188 12.4611L26.935 12.453L26.9675 12.4481L27 12.4449V12.4773L26.9919 12.4805L26.9837 12.4854L26.9805 12.4903L26.9756 12.4935L26.9708 12.4967L26.9675 12.5016L26.9643 12.5065L26.9594 12.5097L26.9545 12.5129L26.9513 12.5178L26.948 12.5227L26.9432 12.5259L26.935 12.5421L26.9269 12.5583L26.9221 12.5616C26.9199 12.5648 26.8512 12.6566 26.7159 12.8371C26.5807 13.0186 26.5076 13.1105 26.4968 13.1127C26.486 13.1159 26.4708 13.1321 26.4514 13.1613C26.433 13.1915 26.3183 13.312 26.1073 13.5227C25.8963 13.7334 25.6896 13.9209 25.4873 14.0852C25.2838 14.2505 25.181 14.4536 25.1789 14.6946C25.1756 14.9345 25.1632 15.2057 25.1415 15.5083C25.1199 15.8108 25.0793 16.1377 25.0198 16.4889C24.9603 16.8401 24.8683 17.2372 24.7439 17.6802C24.6195 18.1232 24.468 18.5554 24.2894 18.9769C24.1109 19.3983 23.9242 19.7765 23.7295 20.1114C23.5347 20.4464 23.3561 20.7301 23.1938 20.9624C23.0315 21.1947 22.8665 21.4135 22.6988 21.6188C22.5311 21.8241 22.319 22.0554 22.0626 22.3125C21.805 22.5686 21.6644 22.7091 21.6406 22.734C21.6157 22.7577 21.5096 22.8464 21.3224 22.9998C21.1363 23.1543 20.9361 23.3088 20.7219 23.4633C20.5087 23.6168 20.3129 23.7448 20.1343 23.8475C19.9558 23.9501 19.7405 24.0674 19.4883 24.1992C19.2373 24.3321 18.9657 24.4553 18.6735 24.5688C18.3814 24.6822 18.073 24.7876 17.7484 24.8848C17.4238 24.9821 17.11 25.0577 16.807 25.1117C16.504 25.1658 16.1605 25.2117 15.7763 25.2495L15.2001 25.3062V25.3143H14.1451V25.3062L14.0072 25.2981C13.9152 25.2927 13.8395 25.2873 13.78 25.2819C13.7204 25.2765 13.4959 25.2468 13.1064 25.1928C12.7168 25.1388 12.4112 25.0847 12.1893 25.0307C11.9675 24.9767 11.6375 24.874 11.1992 24.7227C10.761 24.5715 10.3861 24.4186 10.0745 24.264C9.76391 24.1106 9.56914 24.0133 9.49014 23.9723C9.41223 23.9323 9.32459 23.8826 9.2272 23.8232L9.08112 23.734L9.07789 23.7292L9.07301 23.7259L9.06814 23.7227L9.06489 23.7178L9.04866 23.7097L9.03243 23.7016L9.0292 23.6967L9.02432 23.6935L9.01945 23.6903L9.0162 23.6854L9.01297 23.6805L9.00808 23.6773H8.99997V23.6449L9.0162 23.6481L9.03243 23.653L9.10547 23.6611C9.15416 23.6665 9.28672 23.6746 9.50313 23.6854C9.71955 23.6962 9.94947 23.6962 10.1929 23.6854C10.4364 23.6746 10.6853 23.6503 10.9396 23.6125C11.1938 23.5746 11.4941 23.5098 11.8404 23.418C12.1866 23.3261 12.5048 23.217 12.7948 23.0906C13.0837 22.9631 13.2892 22.868 13.4115 22.8053C13.5327 22.7437 13.7177 22.6291 13.9666 22.4617L14.3399 22.2104L14.3432 22.2056L14.348 22.2023L14.3529 22.1991L14.3561 22.1942L14.3594 22.1894L14.3643 22.1861L14.3691 22.1829L14.3724 22.178L14.3886 22.1732L14.4048 22.1699L14.4081 22.1537L14.413 22.1375L14.4178 22.1343L14.4211 22.1294L14.2912 22.1213C14.2047 22.1159 14.1208 22.1105 14.0396 22.1051C13.9585 22.0997 13.8314 22.0754 13.6582 22.0321C13.4851 21.9889 13.2984 21.9241 13.0983 21.8376C12.8981 21.7512 12.7033 21.6485 12.5139 21.5297C12.3246 21.4108 12.1877 21.3119 12.1033 21.2331C12.02 21.1553 11.9118 21.0451 11.7787 20.9024C11.6467 20.7587 11.532 20.6112 11.4346 20.4599C11.3372 20.3087 11.2442 20.1341 11.1554 19.9364L11.0207 19.6414L11.0126 19.6171L11.0045 19.5928L10.9996 19.5766L10.9964 19.5604L11.0207 19.5636L11.0451 19.5685L11.2236 19.5928C11.3426 19.609 11.5293 19.6144 11.7836 19.609C12.0378 19.6036 12.2137 19.5928 12.3111 19.5766C12.4084 19.5604 12.468 19.5496 12.4896 19.5442L12.5221 19.536L12.5626 19.5279L12.6032 19.5198L12.6065 19.515L12.6113 19.5117L12.6162 19.5085L12.6194 19.5036L12.587 19.4955L12.5545 19.4874L12.5221 19.4793L12.4896 19.4712L12.4571 19.4631C12.4355 19.4577 12.3976 19.4469 12.3435 19.4307C12.2894 19.4145 12.1433 19.3551 11.9053 19.2524C11.6672 19.1498 11.4779 19.0498 11.3372 18.9525C11.1962 18.855 11.0617 18.7484 10.9347 18.6332C10.8081 18.5165 10.6691 18.3663 10.5176 18.1826C10.3661 17.999 10.2308 17.7855 10.1118 17.5424C9.99276 17.2993 9.90349 17.067 9.84397 16.8455C9.78469 16.6252 9.74558 16.4001 9.72713 16.1728L9.6979 15.8324L9.71413 15.8357L9.73036 15.8405L9.74659 15.8486L9.76282 15.8567L9.77905 15.8648L9.79528 15.8729L10.0469 15.9864C10.2146 16.0621 10.4229 16.1269 10.6717 16.1809C10.9206 16.2349 11.0694 16.2647 11.1181 16.2701L11.1911 16.2782H11.3372L11.334 16.2733L11.3291 16.2701L11.3242 16.2668L11.321 16.262L11.3177 16.2571L11.3129 16.2538L11.308 16.2506L11.3047 16.2457L11.2885 16.2376L11.2723 16.2295L11.2691 16.2247L11.2642 16.2214L11.2593 16.2182L11.2561 16.2133L11.2398 16.2052L11.2236 16.1971L11.2204 16.1923C11.2171 16.1901 11.1706 16.1555 11.0808 16.0885C10.992 16.0204 10.899 15.9324 10.8016 15.8243C10.7042 15.7163 10.6068 15.6028 10.5094 15.4839C10.4119 15.3648 10.325 15.2374 10.2497 15.103C10.174 14.968 10.0939 14.7962 10.0095 14.5876C9.92621 14.3802 9.86291 14.1711 9.81963 13.9604C9.77636 13.7496 9.75201 13.5416 9.74659 13.3363C9.74118 13.131 9.74659 12.9554 9.76282 12.8096C9.77905 12.6637 9.81151 12.4989 9.8602 12.3152C9.9089 12.1315 9.97924 11.937 10.0712 11.7317L10.2092 11.4237L10.2173 11.3994L10.2254 11.3751L10.2303 11.3719L10.2335 11.367L10.2368 11.3621L10.2416 11.3589L10.2465 11.3621L10.2497 11.367L10.253 11.3719L10.2579 11.3751L10.2627 11.3784L10.266 11.3832L10.2692 11.3881L10.2741 11.3913L10.2822 11.4075L10.2903 11.4237L10.2952 11.427L10.2984 11.4318L10.5176 11.675C10.6636 11.8371 10.8368 12.0181 11.0369 12.218C11.2371 12.4179 11.348 12.5216 11.3697 12.5292C11.3913 12.5378 11.4184 12.5626 11.4508 12.6037C11.4833 12.6437 11.5915 12.7393 11.7754 12.8906C11.9594 13.0419 12.2002 13.2175 12.4977 13.4174C12.7953 13.6173 13.1253 13.8145 13.4878 14.009C13.8503 14.2035 14.2398 14.3791 14.6564 14.5358C15.073 14.6924 15.3652 14.7951 15.5329 14.8437C15.7006 14.8923 15.9873 14.9545 16.3931 15.0301C16.7989 15.1058 17.1046 15.1544 17.3102 15.176C17.5158 15.1976 17.6564 15.21 17.7322 15.2133L17.8458 15.2165L17.8425 15.1922L17.8377 15.1679L17.8052 14.9653C17.7836 14.8302 17.7727 14.6411 17.7727 14.398C17.7727 14.1549 17.7917 13.9306 17.8295 13.7253C17.8674 13.52 17.9242 13.312 18 13.1013C18.0757 12.8906 18.1498 12.7215 18.2223 12.594C18.2959 12.4676 18.3922 12.3233 18.5112 12.1612C18.6303 11.9991 18.7845 11.8317 18.9738 11.6588C19.1632 11.4859 19.3796 11.3319 19.6231 11.1968C19.8665 11.0618 20.0911 10.9591 20.2966 10.8889C20.5022 10.8186 20.6754 10.7727 20.816 10.7511C20.9567 10.7295 21.027 10.7171 21.027 10.7138Z" fill="#053B38"/>
</g>
</svg>
