<svg width="139" height="138" viewBox="0 0 139 138" fill="none" xmlns="http://www.w3.org/2000/svg">
<g id="Group">
<path id="Vector" d="M138.894 60.369V77.617C138.551 78.602 138.059 79.5616 137.882 80.5756C132.891 108.821 110.826 131.385 82.9414 136.72C54.179 142.22 25.0117 129.727 10.3558 104.44C5.61026 96.2557 3.44892 86.5978 0.105713 77.617C0.105713 71.8665 0.105713 66.1159 0.105713 60.369C0.42377 59.5578 0.893626 58.7684 1.04181 57.9282C4.83681 36.4614 16.1206 19.9123 35.1932 9.39611C43.0615 5.05784 52.2417 3.06253 60.8256 0.00256348C66.6085 0.00256348 72.3913 0.00256348 78.1742 0.00256348C79.1717 0.342962 80.144 0.802862 81.1668 1.00927C109.156 6.68017 127.39 23.1641 136.183 50.0773C137.282 53.4451 138.001 56.936 138.894 60.369ZM54.8512 63.3312C40.7158 69.7444 32.2294 80.1555 29.5983 95.1186C28.8248 99.5257 29.8223 101.89 34.9076 102.959C57.6921 107.75 80.4114 107.688 103.174 103.161C109.806 101.843 110.446 100.742 109.127 93.9272C106.311 79.4132 97.7094 69.4837 84.3763 63.3891C93.2241 50.2331 92.8193 39.1411 83.339 31.1201C74.9069 23.9862 62.7412 24.3302 54.732 31.9312C45.9312 40.2855 45.8408 51.591 54.8512 63.3312Z" fill="white"/>
<path id="Vector_2" d="M102.534 96.6034C80.6065 101.3 58.7112 101.333 36.8051 96.6613C36.3894 83.9181 50.1887 68.7486 62.8857 67.8976C87.2026 66.2681 99.9972 78.1241 102.534 96.6034Z" fill="white"/>
<path id="Vector_3" d="M69.6588 32.4707C77.7114 32.5721 84.4701 39.3693 84.4557 47.3469C84.4412 55.3137 77.6427 62.1071 69.6046 62.1832C61.3821 62.2592 54.3306 55.1652 54.5366 47.0282C54.7426 39.018 61.6459 32.3694 69.6588 32.4707Z" fill="white"/>
</g>
</svg>
