<?xml version="1.0" encoding="UTF-8"?>
<svg id="Calque_1" xmlns="http://www.w3.org/2000/svg" version="1.1" viewBox="0 0 157.16 140.35">
  <!-- Generator: Adobe Illustrator 29.1.0, SVG Export Plug-In . SVG Version: 2.1.0 Build 142)  -->
  <defs>
    <style>
      .st0 {
        fill: #fceef5;
      }
    </style>
  </defs>
  <path class="st0" d="M36.58,17.76l83.95-.05c1.32,0,2.63.32,3.75,1.02,1.88,1.18,3.17,3.2,3.4,5.52.02.22.02.43.02.65v83.78c0,.28,0,.55-.04.83-.25,1.85-1.21,3.54-2.6,4.71-1.27,1.06-2.9,1.57-4.56,1.57H36.38c-.71,0-1.43-.08-2.1-.3-2.11-.7-3.79-2.4-4.5-4.51-.23-.68-.31-1.41-.31-2.13V24.67c0-.85.12-1.71.44-2.51.22-.56.52-1.08.87-1.57,1.34-1.83,3.54-2.83,5.81-2.83Z"/>
  <path d="M110.99,96.07l-20.02-.03-15.64-20.43-17.92,20.45h-9.95l23.2-26.58-24.48-32.05h20.52l14.12,18.72.39-.39,16.05-18.33h9.93l-21.7,24.84,25.5,33.73v.06ZM99.25,90.14c-.07-.2-.24-.38-.37-.55-11.73-15.51-23.48-31.01-35.23-46.51h-5.9l36.04,47.06h5.45Z"/>
</svg>