<?xml version="1.0" encoding="UTF-8"?>
<svg id="Calque_1" xmlns="http://www.w3.org/2000/svg" version="1.1" viewBox="0 0 157.16 140.35">
  <!-- Generator: Adobe Illustrator 29.1.0, SVG Export Plug-In . SVG Version: 2.1.0 Build 142)  -->
  <defs>
    <style>
      .st0 {
        fill: #fceef5;
      }
    </style>
  </defs>
  <path class="st0" d="M36.58,17.76l83.95-.05c1.32,0,2.63.32,3.75,1.02,1.88,1.18,3.17,3.2,3.4,5.52.02.22.02.43.02.65v83.78c0,.28,0,.55-.04.83-.25,1.85-1.21,3.54-2.6,4.71-1.27,1.06-2.9,1.57-4.56,1.57H36.38c-.71,0-1.43-.08-2.1-.3-2.11-.7-3.79-2.4-4.5-4.51-.23-.68-.31-1.41-.31-2.13V24.67c0-.85.12-1.71.44-2.51.22-.56.52-1.08.87-1.57,1.34-1.83,3.54-2.83,5.81-2.83Z"/>
  <path d="M107.13,47.47c3.12,2.57,3.37,8.83,3.64,12.64.38,5.54.49,17.6-1.33,22.64-2.63,7.32-15,6.05-21.26,6.24-8.35.26-16.86.47-25.22,0-12.24-.67-15.62-1.59-16.53-14.51-.38-5.36-.61-19.66,1.5-24.23,2.49-5.39,10.35-5.43,15.51-5.68,9.28-.45,19.51-.46,28.79,0,4.22.21,11.67.22,14.9,2.89ZM72.41,76.63l15.9-9.96-15.9-9.72v19.68Z"/>
</svg>